# xmcd CD database file
#
# Track frame offsets:
#	182
#	13870
#	23257
#	38535
#	51372
#	69512
#	96597
#	107627
#	135115
#	147062
#
# Disc length: 2113 seconds
#
# Revision: 3
# Processed by: cddbd v1.5.2PL0 Copyright (c) Steve Scherf et al.
# Submitted via: CDex 1.51
#
DISCID=78083f0a
DTITLE=Jimmy Dean - Greatest Songs
DYEAR=1995
DGENRE=Country
TTITLE0=Big Bad John
TTITLE1=The First Thing Ev'ry Morning
TTITLE2=P.T. 109
TTITLE3=Bumming Around
TTITLE4=Dear Ivan
TTITLE5=To A Sleeping Beauty
TTITLE6=Little Black Book
TTITLE7=I.O.U.
TTITLE8=Stand Beside Me
TTITLE9=Cajun Queen
EXTD=Curb Records YEAR: 1995
EXTT0=
EXTT1=
EXTT2=
EXTT3=
EXTT4=
EXTT5=
EXTT6=
EXTT7=
EXTT8=
EXTT9=
PLAYORDER=
